<svg xmlns="http://www.w3.org/2000/svg" width="512" height="512" viewBox="0 0 512 512" role="img" aria-label="NomadPoint logo">
  <defs>
    <linearGradient id="g" x1="0" y1="0" x2="1" y2="1">
      <stop offset="0" stop-color="#3b82f6"/>
      <stop offset="1" stop-color="#60a5fa"/>
    </linearGradient>
  </defs>
  <rect width="512" height="512" rx="120" fill="#0b1220"/>
  <circle cx="256" cy="256" r="164" fill="url(#g)" opacity="0.22"/>
  <path d="M256 112c79.5 0 144 64.5 144 144s-64.5 144-144 144S112 335.5 112 256 176.5 112 256 112Zm0 34c-60.7 0-110 49.3-110 110s49.3 110 110 110 110-49.3 110-110-49.3-110-110-110Z"
        fill="#e2e8f0"/>
  <path d="M256 170c47.5 0 86 38.5 86 86s-38.5 86-86 86-86-38.5-86-86 38.5-86 86-86Z"
        fill="#3b82f6" opacity="0.85"/>
  <path d="M318 220l-54 104c-2.3 4.4-8.6 4.4-10.9 0l-54-104c-1.9-3.7.7-8 4.9-8h104c4.2 0 6.8 4.3 4.9 8Z"
        fill="#ffffff" opacity="0.9"/>
</svg>


